<svg xmlns="http://www.w3.org/2000/svg" viewBox="0 0 365.19 54.57"><defs><style>.cls-1{fill:#99d8e7;}.cls-2{fill:#d5f6ff;}.cls-3{fill:#5fbbd3;}.cls-4{fill:#eff9fb;}.cls-5{fill:#d4f6ff;}</style></defs><g id="Layer_2" data-name="Layer 2"><g id="svg2"><g id="g4727"><g id="g4209"><path id="path4087" class="cls-1" d="M138,0c-5.65-.24-10,4.33-13.06,8.22-3.65-.24-5.52,5-8.82,3.13-5.29.4-6.55-5.55-11-7C94.53-1.32,79.82,3.11,74.42,13.65c-6-2-12.57.82-17.16,4.06-5.87-2.17-11.95,1-16.41,4.38-3.75,1.13-7.21,3.13-10.78,4.22-4.19,1.28-9.88,5.62-6.75,10.71,2.41,5.37,9.8,2.23,12.53,7.07,3.14,2,7,2.07,9.75,4.72,4.49,2.47,9.86-.27,14.07,2.56,3.75.54,7.34.81,10.87,2,4.11-.1,7.94-2.3,12-2.06,2.86,2.6,7.44-.23,10.16,2.84,7.14,2,13.77-3.55,21-3,2.93-.66,5.53-1.63,8.5-.44,4.37.68,9-.72,13-1.18,3.9,2.66,9.08,1.83,13.06.65,4.15,1.55,8.73-.08,12.69,2.19,4.75,1.25,9.52-1.25,13.37-3,5,1.77,11.09.73,14.82-3.16,3.6,2.19,8.24,2.42,11.4-.4,4.75-.85,9.41.12,14-1.91,8,1.07,11-11.42,3.81-14.59-3.9-1-8.19-1.25-10.75-4.78-4.13-1.39-5.64-6.48-10.43-7.1-4.79,0-5.06-5.8-8.94-7.78-9.51-7.57-26.09-4.85-31.09,6.69-2.12-3.61-5-6.45-6.57-10.38A14.68,14.68,0,0,0,138,0Z"/><path id="rect4049" class="cls-2" d="M119.17,21.68H149V37.33h-29.8ZM54,29.51H90.13V42.39H54Zm-5.2,7.07c0,3.11-2.87,5.63-6.42,5.63S36,39.69,36,36.58s2.87-5.64,6.42-5.64S48.82,33.46,48.82,36.58ZM32.28,34.05a2.9,2.9,0,1,1-2.88-2.6A2.76,2.76,0,0,1,32.28,34.05Zm7.83-.76a4.84,4.84,0,0,1-5,4.63,4.84,4.84,0,0,1-5-4.63,4.84,4.84,0,0,1,5-4.62A4.84,4.84,0,0,1,40.11,33.29Zm8.71-1.64c0,3.12-2.87,5.64-6.42,5.64S36,34.77,36,31.65,38.85,26,42.4,26,48.82,28.54,48.82,31.65Zm13.64-2c0,4.72-4.35,8.54-9.7,8.54s-9.71-3.82-9.71-8.54,4.35-8.54,9.71-8.54S62.46,24.92,62.46,29.63ZM134.69,18.9a7.46,7.46,0,0,1-14.87,0,7.46,7.46,0,0,1,14.87,0ZM124.08,26c0,6.32-6.16,11.45-13.75,11.45S96.59,32.29,96.59,26s6.15-11.44,13.74-11.44S124.08,19.65,124.08,26Zm-11.62-2.9c0,9.53-8.07,17.25-18,17.25s-18-7.72-18-17.25,8.07-17.26,18-17.26S112.46,13.54,112.46,23.07ZM81.53,26.85c0,5.42-5.25,9.81-11.73,9.81s-11.72-4.39-11.72-9.81,5.25-9.8,11.72-9.8S81.53,21.44,81.53,26.85ZM62.84,38.72c0,4.09-4.63,7.41-10.34,7.41s-10.33-3.32-10.33-7.41,4.62-7.4,10.33-7.4S62.84,34.63,62.84,38.72ZM71.55,41c0,3.88-3.5,7-7.81,7s-7.81-3.14-7.81-7,3.5-7,7.81-7S71.55,37.12,71.55,41ZM76,45a4.66,4.66,0,1,1-4.65-4.38A4.52,4.52,0,0,1,76,45Zm8.33-2.91c0,3.19-2.93,5.77-6.54,5.77s-6.55-2.58-6.55-5.77,2.93-5.76,6.55-5.76S84.3,39,84.3,42.13Zm9.6.76c0,3.18-2.93,5.76-6.55,5.76s-6.54-2.58-6.54-5.76,2.93-5.76,6.54-5.76S93.9,39.71,93.9,42.89Zm14.65.51c0,3.18-2.93,5.76-6.55,5.76s-6.55-2.58-6.55-5.76,2.93-5.77,6.55-5.77S108.55,40.21,108.55,43.4Zm-5.68,1.51c0,3.18-2.94,5.76-6.55,5.76s-6.55-2.58-6.55-5.76,2.93-5.76,6.55-5.76S102.87,41.73,102.87,44.91Zm20.7-6.57c0,5.14-6.6,9.3-14.75,9.3s-14.76-4.16-14.76-9.3,6.61-9.29,14.76-9.29S123.57,33.21,123.57,38.34Zm16.67-.75c0,5.13-6.6,9.3-14.75,9.3s-14.76-4.17-14.76-9.3,6.61-9.3,14.76-9.3S140.24,32.45,140.24,37.59ZM150.6,39.1a8.7,8.7,0,0,1-17.39,0,8.7,8.7,0,0,1,17.39,0Zm11.49-.25a8.7,8.7,0,0,1-17.39,0,8.7,8.7,0,0,1,17.39,0Zm12.37.25c0,5.28-4.63,9.55-10.34,9.55s-10.33-4.27-10.33-9.55,4.63-9.55,10.33-9.55S174.46,33.83,174.46,39.1Zm13.38.63c0,3.61-3.83,6.52-8.56,6.52s-8.57-2.92-8.57-6.52,3.84-6.52,8.57-6.52S187.84,36.13,187.84,39.73Zm5.81-1.64c0,2.14-2,3.87-4.52,3.87s-4.53-1.73-4.53-3.87,2-3.87,4.53-3.87S193.65,36,193.65,38.09Zm5.56,2c0,2.14-2,3.87-4.53,3.87s-4.53-1.73-4.53-3.87,2-3.87,4.53-3.87S199.21,38,199.21,40.11Zm13.89-2.52c0,2.13-2,3.87-4.53,3.87S204,39.72,204,37.59s2-3.87,4.53-3.87S213.1,35.45,213.1,37.59Zm5.55-1.27c0,2.14-2,3.87-4.52,3.87s-4.53-1.73-4.53-3.87,2-3.86,4.53-3.86S218.65,34.19,218.65,36.32Zm-5.43-1.76c0,1.85-1.91,3.36-4.27,3.36s-4.27-1.51-4.27-3.36,1.91-3.37,4.27-3.37S213.22,32.7,213.22,34.56Zm-4.41-.26c0,4.16-3.11,7.53-6.93,7.53S195,38.46,195,34.3s3.1-7.53,6.93-7.53S208.81,30.15,208.81,34.3Zm-5.81-4c0,5.28-4.63,9.55-10.34,9.55s-10.33-4.27-10.33-9.55,4.62-9.55,10.33-9.55S203,25,203,30.26Zm-11.11-4.79a16.53,16.53,0,0,1-33,0,16.53,16.53,0,0,1,33,0Zm-24.5,6.06c0,5.27-4.63,9.55-10.34,9.55s-10.33-4.28-10.33-9.55S151.35,22,157.05,22,167.39,26.25,167.39,31.53ZM154,21.17c0,5.28-4.62,9.55-10.33,9.55s-10.34-4.27-10.34-9.55,4.63-9.55,10.34-9.55S154,15.9,154,21.17Zm-4.95-7.6c0,5.28-4.63,9.55-10.34,9.55s-10.33-4.27-10.33-9.55S133,4,138.71,4,149.05,8.3,149.05,13.57Z"/><path id="path4172" class="cls-3" d="M88.44,48.48,84.07,42l6.18-3,2.88,5.25-5.1.81,6-.34-3.44-7.47L81.1,41.79l3.25,6.13a7.07,7.07,0,0,0,3,.75A8,8,0,0,0,88.44,48.48Z"/><path id="path4170" class="cls-3" d="M150.82,14.32l-3.22,12L137,22.92l3.1-7.88,6.78,4.38-7.28-5.79-5.13,10.6,16.28,5.31,3.16-7.84c0-.19.12-.34.12-.53A9.19,9.19,0,0,0,150.82,14.32Z"/><path id="path4167" class="cls-4" d="M138,8c-4.7.25-6.64,5.85-5.68,9.91-2.86-3.15-8.84-2.38-9,2.34,1,5.93.09,7.14-4,2.06a13.42,13.42,0,0,0-11.6-3.65C103.85,7.24,85,6.94,81.28,18.6c.08,3.54-3.91,7.35-6.9,4-5.32-4.24-13.53.71-13.66,7.35-2.71-5.06-11.72-7-14-.69-.23,4-4.75-1.44-6.72,2-1.73,1.86-1.22,3.17.19,4.9.06,3.77,6.1.72,7.16,4.41,3.26,2.62,8,1.64,11.4-.31,1.69,4.66,7.56,4.69,10.44,1.15-.46,1.72,2,5.86,3.38,2.91.68-4.87,1.8-.88,4-.44,2.4-.29-1.71-6.4,2.84-5.47,4.44-1.56,10.2-8.23,14.6-3.12,1.48,3.29,4.07,7.81,4.46,10.65,1.51-2.13,4.51.28,6.75-1.87,3.51-1.24,7.37.27,10.79-1.91,5-1.4,10,2.55,15-.15,3.05-1.17,5.67-4,7.22,0,2.88,2.77,7.57,1,9.34-2.19,2.29,3.35,7.2,4.65,10.19,1.47,3.38,5.73,12.48,3.58,13.61-2.84,1.33-1.88,3.25,3.88,6,3.62a5.67,5.67,0,0,0,7.47-5.63c2.9,2.37,7.56.51,9.84,3.63,2.8-1.37-.71-7.89,3.62-3.68A4.39,4.39,0,0,0,205.6,35c.06,2.46,5.17,3.18,4.09.84-2.55-.58-5.11-2-6.28-4.47A8.87,8.87,0,0,1,197,26.26c-2.45-2.18-6.09-1.62-8.87-.5.14-11.09-15.45-16.88-22.34-8.13-2.41,2.7-3,6.4-3.6,9.85-1.86-.9-7.25-3.15-6.78.87-.17,5-6.15,6.33-9.84,4-4.1-3.42-10.24-1.42-13.91-5.19-3.27-5.13,2.46-10,3.5-14.9,1.92-3.92,7.11-2.33,9.34-.16-.39-2.85-3.91-4.31-6.5-4ZM35.32,32.57c-2.38.65-.24,2,1.4,1.1C38.43,34.19,35.87,32.24,35.32,32.57Z"/><path id="path3304-1-3" class="cls-3" d="M199,20.87l-3.69,8.66-5.87-2.81.81-4.32-2.78,5,8.22,4.66,4.81-8.53A29.26,29.26,0,0,0,199,20.87ZM37.2,23.06a10.18,10.18,0,0,0-.34,1.66,11.11,11.11,0,0,0,.43,2.9l9.5,9,9.66-5.15-2.16-6.82v6.63L47,34.12Z"/><path id="path4196" class="cls-1" d="M13.25,28.69a7.39,7.39,0,0,0-6.66,4,5.16,5.16,0,0,0-1.68-.31,4.59,4.59,0,1,0,0,9.15A5.06,5.06,0,0,0,8,40.5a7.54,7.54,0,0,0,5.25,2.09,7.16,7.16,0,0,0,7.34-7A7.14,7.14,0,0,0,13.25,28.69Z"/><path id="path4205" class="cls-5" d="M12.5,30.73c-3.8-.14-4,5.85-7.59,3.69-4.1-.26-3.33,6.18.59,5.09,2.28-1.83,3.62-.57,5.72.72,4.75,2.35,10.08-4.4,5.85-8A5.53,5.53,0,0,0,12.5,30.73Z"/><path id="path4201" class="cls-4" d="M12.69,32.73c-2.13,0-3.18,3.48-4.75,3.87,2.76.39,6.07,4.15,8.19.32C17.75,34.61,14.91,32.24,12.69,32.73ZM4.35,36.48c-1.13,2.25,3.35.15.43.09C4.73,36.55,4.45,36.37,4.35,36.48Z"/></g><path id="path4254" class="cls-1" d="M234.21,29.9c-3.25,0-5.88,2.14-5.88,4.75a3.87,3.87,0,0,0,.53,1.94,3.81,3.81,0,0,0-.28,1.47c0,2.61,2.63,4.75,5.88,4.75a6.94,6.94,0,0,0,2.06-.32,16.34,16.34,0,0,0,5.25.82c5,0,9.09-1.92,9.09-4.28,0-1.28-1.19-2.41-3.06-3.19a4.16,4.16,0,0,0-3.91-2.44,4.36,4.36,0,0,0-3.25,1.38l-.56,0v-.16c0-2.61-2.63-4.75-5.87-4.75Zm21.93,4.88A4,4,0,0,0,252,38.46a4.2,4.2,0,0,0,8.34,0A3.94,3.94,0,0,0,256.14,34.78Z"/><path id="path4344" class="cls-2" d="M233.83,31.93c-3.33-.16-4,3.41-3.19,5.69.07,4.56,5.94,2.42,8.6,3.5,2.85.28,8.18.49,9.5-2.28-2-1.19-4-5.05-6.69-2.66-3.74,2.52-3.61-.56-4.66-3.09A4.5,4.5,0,0,0,233.83,31.93Zm22,4.88c-3.39.13-1.27,4.85,1.44,3.09C259.34,38.93,257.82,36.33,255.86,36.81Z"/><path id="path4348" class="cls-4" d="M234,33.93c-3-.08-1.78,6.43,1.5,4.81,1.58-.18,4.23.7,1.65-1C235.9,36.45,236.46,33.41,234,33.93Zm9.71,3.53a7.13,7.13,0,0,1-4,1.69C241.45,39.32,248.68,39.64,243.67,37.46Z"/><g id="g4720"><path id="path4632" class="cls-1" d="M318.25,7c-8.37-.18-13.07,8.73-21.16,9.5-5.23,1.52-5,9.12-10.19,10.12-2.63,2.51-5.85,2.55-9.15,2.69-5,.4-9.55,6.09-5.85,10.59,2.58,4.66,8.23,6.08,12.75,7.25,5.47,6.75,15.68,7,22.91,3.53,6,2.28,12.57-.24,18-2.5,3,1.6,6.27,2.68,9.62,2.07,6,3.45,13.59,1.25,17.94-3.57,7,.67,12.46-6.91,10.81-13.25,3.24-4.28-.23-9.59-3.72-12.09-1.44-4.26-6.34-4.62-9.93-5.25-5.09-2.28-11.1-5.73-16.47-1.84A18,18,0,0,0,318.25,7Z"/><path id="path4352" class="cls-2" d="M319.31,11a13.93,13.93,0,0,0-11.94,6.71,4.92,4.92,0,0,0-1.09-.12,5.1,5.1,0,0,0-4.35,2.59,4.74,4.74,0,0,0-1.56-.28,5.29,5.29,0,0,0-5.06,4.63,5.7,5.7,0,0,0-2.41,4.72v.15c-3.7.16-6.73,1.64-7.69,3.63a9.6,9.6,0,0,0-1.81-.19c-4.91,0-8.87,1.37-8.87,3s3.78,6.56,8.68,6.56a33.08,33.08,0,0,0,3.35-.18c.8,3.76,5.6,6.65,11.4,6.65a14.22,14.22,0,0,0,8.82-2.78,15.5,15.5,0,0,0,6.62,1.44c4.07,0,7.64-1.45,9.69-3.6a6.66,6.66,0,0,0,1.56.19,6.75,6.75,0,0,0,2.31-.4,6.74,6.74,0,0,0,8.32,1.84,10,10,0,0,0,6.53,2.31c4.3,0,7.88-2.5,8.84-5.87a7.24,7.24,0,0,0,2.85.62c3.6,0,6.53-2.61,6.53-5.81a5.44,5.44,0,0,0-1.85-4,3.93,3.93,0,0,0,3-3.59c0-2.13-2-3.85-4.56-3.85-.06,0-.12,0-.19,0a3.23,3.23,0,0,0,.28-1.28,3.71,3.71,0,0,0-3.84-3.56,4,4,0,0,0-2.53.91,4.57,4.57,0,0,0-4.25-2.5,5.73,5.73,0,0,0-.84.06,7,7,0,0,0-10.91.12,7.11,7.11,0,0,0-2.13.47A13.87,13.87,0,0,0,319.31,11Z"/><path id="path4665" class="cls-3" d="M297.28,48.8l-3.6-5.31,6.19-3,2.88,5.25-5.1.81,6-.35-3.43-7.46-9.54,4.53,2.6,4.9A16.16,16.16,0,0,0,297.28,48.8Z"/><path id="path4663" class="cls-3" d="M345,18.83,346.75,29l-11.1,1.37-.5-8.44,8,1.1-9-2.16-.19,11.75,17-2-.43-8.44c-.07-.17-.05-.36-.13-.53s-.34-.37-.47-.59a4.54,4.54,0,0,0-3.81-2,5.73,5.73,0,0,0-.84.06C345.18,19,345.07,18.91,345,18.83Z"/><path id="path4659" class="cls-4" d="M318.65,15c-4.35.16-7.91,3.58-9.44,7.5-2.58-2.45-5.19.19-5.62,2.93-3-4-5.35.72-6.56,3.25A4.59,4.59,0,0,1,291,33.55c-2.88,1.94-5.39,4.57-9.25,3.28-4.09-.18,1.16,2,2.57,1.62a10.22,10.22,0,0,1,6.53.66c3.83-1.23,8.11-6.43,11.91-4.41,2.21,2.09,1.49,7.53,4.74,8,4.73,1,11.11,1.81,14.22-3.18,3.5.63,7.48.28,10.22,2.72a9.12,9.12,0,0,1,8.47,1.56c4.67,1.19,8.26-3.63,7.44-8.16,1.34,2.59,7.31,4.6,8.15,1a25.76,25.76,0,0,1-3-3.28c-4.4,4-10.79.7-15.88,3.1-4,1.61-9-1.59-7.16-6.1C331.65,23.29,326.68,14.48,318.65,15Z"/></g></g></g></g></svg>