<svg xmlns="http://www.w3.org/2000/svg" viewBox="0 0 218.06 91.05"><defs><style>.cls-1{fill:#99d8e7;}.cls-2{fill:#d5f6ff;}.cls-3{fill:#5fbbd3;}.cls-4{fill:#eff9fb;}</style></defs><g id="Layer_2" data-name="Layer 2"><g id="svg2"><g id="g4220"><path id="path3007" class="cls-1" d="M90.86.1C77,.55,65.59,9.38,55.27,17.35,44.8,18.77,40.83,30.05,38.39,38.94c-3.2,8.45-11.77,11.93-19.56,14.85-4.43,1.77-6.36,7-11.56,7.28-8.42.49-10.06,13.68-2.1,16.44C13,78.68,20.9,80.7,28,84.35c9.79,1.77,19.84,2.58,29.19,6A48.32,48.32,0,0,0,88,84.69c14.72,9.29,33.8,7.37,49.1.82,12.19,5.3,25.75,1.15,38.09.47,11.52,3.44,22.08-4.89,32.72-7.88,8.22-3.63,14.39-15.86,6.66-22.84-4.34-2.81-8.91-5.31-12.91-8.5-5.44-2.1-11.64-.77-16.41,2.37-8.18-4.65-5.27-16-11.37-22-8.19-7.25-20.21-8.65-27.13-17.5C140,4.38,130.33,4.19,123.05,8.32,113.54,1.94,102.24-.55,90.86.1Z"/><path id="path3261" class="cls-2" d="M95.08,4.07c-15.61,0-29,7.15-34.72,17.34a14,14,0,0,0-2.25-.22A13.22,13.22,0,0,0,44.89,34.41a13.38,13.38,0,0,0,.56,3.88,7.62,7.62,0,0,0-5.56,7.37,8.09,8.09,0,0,0,.19,1.72c-3.22.49-5.66,2.42-5.88,4.75-.24,0-.47,0-.72,0-3.76,0-6.89,1.91-7.43,4.41a10.59,10.59,0,0,0-1.5-.13c-4.15,0-7.5,2.33-7.5,5.19a3.94,3.94,0,0,0,.84,2.37,21.41,21.41,0,0,0-3.16-.21c-6.13,0-11.09,2.6-11.09,5.81s5,5.78,11.09,5.78a18.8,18.8,0,0,0,6.22-1c2,4.29,7.88,7.41,14.85,7.41a21.84,21.84,0,0,0,6.4-1c5.46,3.66,13.36,6,22.16,6,9.61,0,18.17-2.76,23.62-7,5.43,4.47,14.19,7.37,24.07,7.37,9.33,0,17.65-2.59,23.12-6.66a45.82,45.82,0,0,0,37-.15,18.78,18.78,0,0,0,9.53,2.53,17.45,17.45,0,0,0,14.22-6.75,12.65,12.65,0,0,0,3.47.5c4.72,0,8.73-2.51,10.16-6a7.53,7.53,0,0,0,4.84-6.91,7.78,7.78,0,0,0-8-7.5,8.69,8.69,0,0,0-2,.25,7.82,7.82,0,0,0-8-6.84,8.07,8.07,0,0,0-7.5,4.78,6.78,6.78,0,0,0-4.66-1.94,5.85,5.85,0,0,0-.72.07,7.28,7.28,0,0,0-6.22-4.35,8.67,8.67,0,0,0-3.56-7,10.85,10.85,0,0,0,.5-3.34,11.89,11.89,0,0,0-12.12-11.63c-.18,0-.36,0-.53,0a9.22,9.22,0,0,0-8.75-5.72,10.08,10.08,0,0,0-3.72.68c-1-6.64-7.27-11.78-14.88-11.78a15.71,15.71,0,0,0-10.87,4.28C116.39,7.81,106.33,4.07,95.08,4.07Z"/><path id="path3296" class="cls-3" d="M87.36,80.13l-14-3.44,3.22-11.21,8.22,3L82.61,72.6l6.06-5.25-13.56-4.5-5,17.22,10.12,3.81A30.36,30.36,0,0,0,87.36,80.13Z"/><path id="path3301" class="cls-3" d="M123.86,13.26l.12,0-.06,0-.06.07Z"/><path id="path3299" class="cls-3" d="M116.7,9.32,105.39,13.6l5,17.22L124,26.32l-6.09-5.25,2.16,4.12-8.22,3L108.61,17,123,13.48A36.2,36.2,0,0,0,116.7,9.32Z"/><path id="path3304" class="cls-3" d="M173.83,36.16l-9.78,11.07-7.32-2.85V37.76l-2.15,6.81,9.65,5.16,9.5-9a10.84,10.84,0,0,0,.44-2.91A10.4,10.4,0,0,0,173.83,36.16Z"/><path id="path3293" class="cls-4" d="M92.73,10.13c-12.25.26-24.47,7.11-30,18.25C56,22.93,46.71,34.06,52.48,40c3.65,3.57-4,1.28-5.53,4.13-4.21,3.2,4.75,8,0,11.1-2.87,1.86-6.5-4.41-7.9-.07-1,2.84-4,3.66-6.54,3-2.41,2.47-5.29,5.37-9,4.19.79,1.4,2.45,3.57,1,5.66,1.84,8,12.22,9.38,18.69,6.37,6.19,4.2,14.66,7.21,21.53,6.13-.72-6.32,3.21-11.86,4-18,2.34-6,10.57-7.25,15-2.91,4.56.79,11.53,2.38,10.85,8.47,0,2.78-3.1,5.21-4.19,6.53,6.7,3.42,13.3,7.13,21,6.56a37.62,37.62,0,0,0,23.34-7.5,40.45,40.45,0,0,0,37.79-.15c6.5,5.94,17.76,3.37,21.56-4.44,5,4,13.15-.6,13.94-6-2.47-2.16-7.28.27-8.69-3.88-.58-2.48-2.59-5-5-2.65-3.53,4.58-2.47,11.21-4.91,16.4-2.8-4.39-1.88-10.66-5.25-14.53-4.41-.65-7.76-4.3-11.37-6.59-1.09-1.95-3,2.39-4.94,2.4-5.66,2.94-12.16-.6-16.19-4.59-5.2-5.25-2.94-17.05,5.44-16.78,3.62.21,5.06,4.6,6.22,6.72,2-1.78,5.67-5.93,1.06-6.69a16.69,16.69,0,0,1-10-5.87c-3.47-1.25-7.13.29-10.66.84C146.53,18.93,135,12,128,17.19c-1.49,1.41-3.63,2.28-.78,3.63,2.38,2.49,5.62,7.82,2.63,10.09-7.73,3-16.39,3.79-23.1,8.94-1.41-9.4-7.67-18.26-6.5-27.84,2.39-3.13-4.44-1.24-6.09-1.91l-1,0Z"/><path id="path3299-1" class="cls-3" d="M44.79,38.32,56.11,42.6l-5,17.22-13.6-4.5,6.1-5.25-2.16,4.12,8.22,3L52.89,46l-14.38-3.5A37.14,37.14,0,0,1,44.79,38.32Z"/></g></g></g></svg>